<svg id="Layer_1" data-name="Layer 1" xmlns="http://www.w3.org/2000/svg" viewBox="0 0 717.15 377.99"><defs><style>.cls-1{fill:#ed1e79;}.cls-2{fill:#fcee21;}.cls-3{fill:#39b54a;}.cls-4{fill:#5dd1f9;}</style></defs><title>1121</title><path class="cls-1" d="M329.62,210.77,261,27.25,454.24,59.57ZM306.13,64.46l33.14,88.61,60.18-73Z" transform="translate(-41.42 -27.25)"/><path class="cls-2" d="M70.19,382.8a87.26,87.26,0,1,1,123.24-6.32A87.35,87.35,0,0,1,70.19,382.8ZM167.51,275a58,58,0,1,0,4.21,81.93A58.06,58.06,0,0,0,167.51,275Z" transform="translate(-41.42 -27.25)"/><rect class="cls-3" x="364.63" y="264.98" width="179.21" height="29.25" transform="translate(-114.83 330.46) rotate(-40.03)"/><polygon class="cls-4" points="717.15 249.97 703.83 223.94 637.08 258.11 602.91 191.36 576.88 204.69 611.05 271.44 544.3 305.61 557.64 331.64 624.38 297.47 658.55 364.21 684.58 350.88 650.41 284.14 717.15 249.97"/></svg>