<svg xmlns="http://www.w3.org/2000/svg" xmlns:xlink="http://www.w3.org/1999/xlink" width="424" height="97" viewBox="0 0 424 97">
  <defs>
    <filter id="JOYSTIQ" x="171" y="0" width="253" height="97" filterUnits="userSpaceOnUse">
      <feOffset dy="3" input="SourceAlpha"/>
      <feGaussianBlur stdDeviation="3" result="blur"/>
      <feFlood flood-opacity="0.161"/>
      <feComposite operator="in" in2="blur"/>
      <feComposite in="SourceGraphic"/>
    </filter>
  </defs>
  <g id="Group_1" data-name="Group 1" transform="translate(-20 -8)">
    <g id="_1121" data-name="1121" transform="translate(20 16.988)">
      <path id="Path_1" data-name="Path 1" d="M274.339,62.925,261,27.25l37.564,6.283Zm-4.566-28.442,6.442,17.225,11.7-14.191Z" transform="translate(-218.309 -27.25)" fill="#ed1e79"/>
      <path id="Path_2" data-name="Path 2" d="M46.988,260.313a16.963,16.963,0,1,1,23.957-1.229A16.963,16.963,0,0,1,46.988,260.313Zm18.918-20.955a11.275,11.275,0,1,0,.818,15.927,11.275,11.275,0,0,0-.818-15.927Z" transform="translate(-41.389 -191.197)" fill="#fcee21"/>
      <rect id="Rectangle_2" data-name="Rectangle 2" width="34.837" height="5.686" transform="translate(65.089 58.091) rotate(-40.03)" fill="#39b54a"/>
      <path id="Path_3" data-name="Path 3" d="M577.9,202.753l-2.589-5.06-12.976,6.642-6.642-12.976-5.06,2.591,6.642,12.976L544.3,213.569l2.593,5.06,12.974-6.642,6.642,12.974,5.06-2.591L564.927,209.4Z" transform="translate(-438.486 -154.161)" fill="#5dd1f9"/>
    </g>
    <g transform="matrix(1, 0, 0, 1, 20, 8)" filter="url(#JOYSTIQ)">
      <text id="JOYSTIQ-2" data-name="JOYSTIQ" transform="translate(297 70)" fill="#fcee21" font-size="59" font-family="SegoeUI-Semibold, Segoe UI" font-weight="600"><tspan x="-116.099" y="0">JOY</tspan><tspan y="0" fill="#f5f5f5" font-family="SegoeUI-Bold, Segoe UI" font-weight="700">STIQ</tspan></text>
    </g>
    <line id="Line_1" data-name="Line 1" y2="79.177" transform="translate(179.101 17.237)" fill="none" stroke="#f5f5f5" stroke-linecap="round" stroke-width="5"/>
  </g>
</svg>
